<svg width="32" height="32" viewBox="0 0 32 32" fill="none" xmlns="http://www.w3.org/2000/svg">
<path d="M11.7702 20.7577L14.5896 17.7974L17.7967 20.7577H23.2945L14.5544 12.1938L5.88477 20.7577H11.7702Z" fill="#2D383F"/>
<path d="M19.8415 7.01322L15.6829 11.2423L18.4317 14.0616L19.8415 12.652L27.5595 20.3348C25.7974 25.022 21.2864 28.3701 15.9648 28.3701C9.12775 28.3701 3.59471 22.837 3.59471 16C3.62996 9.16297 9.163 3.62996 16 3.62996C22.0617 3.62996 27.1366 8.03528 28.1587 13.7797L31.8943 17.7269C31.9648 17.163 32 16.5639 32 16C32 11.7357 30.3436 7.7181 27.3128 4.68722C24.282 1.65639 20.2644 0 16 0C11.7005 0 7.71809 1.65639 4.68723 4.68722C1.65639 7.7181 0 11.7004 0 16C0 20.2996 1.65639 24.2819 4.68723 27.3128C7.71809 30.3436 11.7357 32 16 32C20.2644 32 24.282 30.3436 27.3128 27.3128C29.1807 25.445 30.5198 23.2247 31.2599 20.7929C31.4009 20.3701 31.5066 19.9119 31.6123 19.489L28.3701 16.0705L19.8415 7.01322Z" fill="#2D383F"/>
</svg>
